<svg width="75" height="41" viewBox="0 0 75 41" fill="none" xmlns="http://www.w3.org/2000/svg">
<path d="M52.6918 25.9786C51.6753 26.2116 49 26.3457 49 26.3457L48.6612 27.4045C48.6612 27.4045 49.9953 27.2916 50.9695 27.3904C50.9695 27.3904 51.2871 27.3551 51.3224 27.7504C51.3365 28.1174 51.2942 28.5127 51.2942 28.5127C51.2942 28.5127 51.273 28.7527 50.9342 28.8092C50.5671 28.8727 48.0542 28.9645 48.0542 28.9645L47.6447 30.341C47.6447 30.341 47.4965 30.6586 47.8353 30.5668C48.153 30.4821 50.7859 29.988 51.1318 30.0586C51.4989 30.1504 51.9083 30.6374 51.7883 31.0892C51.6471 31.6398 49.0212 33.3198 47.4189 33.1998C47.4189 33.1998 46.5789 33.2563 45.8659 32.1198C45.2024 31.0398 46.12 28.9857 46.12 28.9857C46.12 28.9857 45.7036 28.0257 46.0071 27.708C46.0071 27.708 46.1906 27.5457 46.713 27.5033L47.3553 26.1692C47.3553 26.1692 46.6212 26.2186 46.1836 25.6821C45.7742 25.1668 45.7459 24.9339 46.0565 24.7927C46.3883 24.6304 49.4447 24.0727 51.5483 24.1433C51.5483 24.1433 52.2824 24.0727 52.9106 25.3433C52.9036 25.3433 53.2142 25.8586 52.6918 25.9786ZM44.7789 31.1033C44.5106 31.7386 43.7977 32.4163 42.9153 31.9927C42.04 31.5692 40.6494 28.7245 40.6494 28.7245C40.6494 28.7245 40.12 27.6657 40.0212 27.6869C40.0212 27.6869 39.9083 27.4821 39.8377 28.6398C39.7671 29.7974 39.8518 32.0492 39.393 32.4021C38.9553 32.7551 38.4259 32.6139 38.1506 32.1974C37.9036 31.788 37.7977 30.8139 37.9318 29.1057C38.0942 27.3974 38.4894 25.5763 38.9977 25.0045C39.5059 24.4398 39.9153 24.8492 40.0706 24.9974C40.0706 24.9974 40.7483 25.6116 41.8706 27.4186L42.0683 27.7504C42.0683 27.7504 43.0847 29.4586 43.1906 29.4516C43.1906 29.4516 43.2753 29.5292 43.3459 29.4727C43.4518 29.4445 43.4095 28.8939 43.4095 28.8939C43.4095 28.8939 43.1977 27.0374 42.273 23.8892C42.273 23.8892 42.1318 23.4939 42.2306 23.1268C42.3224 22.7527 42.6965 22.9292 42.6965 22.9292C42.6965 22.9292 44.1365 23.6492 44.8283 25.9927C45.513 28.3574 45.0471 30.468 44.7789 31.1033ZM37.7059 25.0821C37.5859 25.3221 37.5153 25.668 36.9083 25.7598C36.9083 25.7598 31.0989 26.1551 30.8236 26.5645C30.8236 26.5645 30.6189 26.8045 30.9365 26.8751C31.2542 26.9386 32.5671 27.1151 33.2024 27.1504C33.88 27.1574 36.1671 27.1786 36.9859 28.2021C36.9859 28.2021 37.473 28.6892 37.4518 29.7904C37.4306 30.9198 37.233 31.3151 36.7953 31.7245C36.3365 32.1057 32.3977 33.8704 29.8565 31.1598C29.8565 31.1598 28.6847 29.8539 30.2589 28.8657C30.2589 28.8657 31.3953 28.181 34.2824 28.9857C34.2824 28.9857 35.1577 29.3033 35.1153 29.621C35.0659 29.9598 34.3953 30.3198 33.4212 30.2986C32.4753 30.2704 31.7836 29.8186 31.9177 29.8892C32.0447 29.9386 30.9012 29.3386 30.5483 29.748C30.1953 30.1221 30.28 30.3551 30.6259 30.588C31.5083 31.0892 34.9177 30.9127 35.9342 29.7833C35.9342 29.7833 36.3365 29.3245 35.7224 28.9504C35.1083 28.5974 33.3506 28.3857 32.6659 28.3504C32.0094 28.3151 29.5671 28.3574 29.2142 27.708C29.2142 27.708 28.8612 27.2704 29.2494 26.028C29.6589 24.7292 32.5036 24.228 33.7318 24.1151C33.7318 24.1151 37.113 23.9951 37.7342 24.6869C37.7271 24.6869 37.8118 24.8492 37.7059 25.0821ZM28.1059 32.6986C27.6965 33.0021 26.8283 32.868 26.5812 32.5292C26.3342 32.2257 26.2494 31.0186 26.2989 29.1268C26.3483 27.2139 26.3906 24.8421 26.8 24.468C27.2377 24.0868 27.5059 24.4186 27.6753 24.6798C27.8589 24.9339 28.0777 25.2163 28.1271 25.8163C28.1694 26.4163 28.3106 29.5645 28.3106 29.5645C28.3106 29.5645 28.4942 32.4021 28.1059 32.6986ZM28.9883 22.548C27.7953 22.9433 26.9765 22.8092 26.2847 22.5127C25.9812 23.0421 25.8047 23.2045 25.5718 23.2398C25.233 23.2751 24.9294 22.7316 24.873 22.5551C24.8165 22.421 24.6542 22.1951 24.8518 21.6586C24.1742 21.0516 24.1247 20.2327 24.2377 19.6821C24.4071 19.0468 25.5506 16.6327 29.0306 16.3504C29.0306 16.3504 30.7318 16.2233 31.0212 17.1339H31.0706C31.0706 17.1339 32.7224 17.141 32.6871 18.6092C32.6659 20.0845 30.8518 21.9198 28.9883 22.548ZM25.7412 19.2798C25.3883 19.8445 25.3742 20.1833 25.5365 20.4163C25.9389 19.8021 26.673 18.8351 27.753 18.101C26.92 18.1716 26.2212 18.5316 25.7412 19.2798ZM30.5483 18.3339C29.4542 18.4963 27.76 19.9645 26.9553 21.1645C28.1906 21.3904 30.3718 21.3057 31.3389 19.3363C31.3318 19.3363 31.7977 18.1151 30.5483 18.3339ZM60.2518 29.7057C59.5953 30.8492 57.753 33.2351 55.2965 32.6774C54.4847 34.6468 53.8071 36.6304 53.4189 39.6092C53.4189 39.6092 53.3342 40.188 52.8542 39.9833C52.3812 39.8139 51.5906 39.0233 51.4353 37.9292C51.2659 36.4892 51.9083 34.0539 53.2142 31.2657C52.833 30.6445 52.5718 29.7551 52.7977 28.4916C52.7977 28.4916 53.1295 26.148 55.48 24.0304C55.48 24.0304 55.7624 23.7833 55.9247 23.861C56.1083 23.9386 56.0236 24.701 55.8753 25.068C55.7271 25.4351 54.6753 27.2563 54.6753 27.2563C54.6753 27.2563 54.0189 28.4845 54.2024 29.4516C55.4377 27.5527 58.2471 23.7198 59.9906 24.9268C60.5765 25.3433 60.8447 26.2539 60.8447 27.2351C60.8377 28.1033 60.633 29.021 60.2518 29.7057ZM59.7436 26.6986C59.7436 26.6986 59.6447 25.9433 58.9106 26.7763C58.2753 27.4751 57.1318 28.7951 56.2071 30.581C57.1742 30.4751 58.1059 29.9457 58.3883 29.6774C58.8471 29.268 59.913 28.1669 59.7436 26.6986ZM25.473 27.6586C25.3389 29.3668 24.6824 32.2398 20.0306 33.6586C16.96 34.5833 14.0589 34.1386 12.4777 33.7363C12.4424 34.3645 12.3718 34.6327 12.273 34.7386C12.1389 34.8727 11.1365 35.4516 10.5859 34.6327C10.3389 34.2445 10.2118 33.5386 10.1412 32.9104C6.58357 31.2727 4.94592 28.9151 4.88239 28.8092C4.80474 28.7316 3.99298 27.8845 4.80474 26.8468C5.56709 25.908 8.05886 24.9692 10.3036 24.588C10.3812 22.668 10.6071 21.221 10.8753 20.5574C11.2 19.788 11.6094 20.4798 11.9624 21.0021C12.2589 21.3904 12.4353 23.0633 12.4494 24.3974C13.9177 24.3268 14.7859 24.4327 16.4236 24.7292C18.5553 25.1174 19.9812 26.2045 19.8542 27.4398C19.7624 28.6539 18.6471 29.1551 18.2236 29.1904C17.7789 29.2257 17.0871 28.908 17.0871 28.908C16.6142 28.6821 17.0518 28.4845 17.6236 28.2374C18.2447 27.9339 18.1036 27.6233 18.1036 27.6233C17.8706 26.9457 15.1036 26.4727 12.3506 26.4727C12.3365 27.9904 12.4142 30.5104 12.4494 31.9786C14.3765 32.3457 15.8165 32.2751 15.8165 32.2751C15.8165 32.2751 22.8471 32.0774 23.0589 27.588C23.2777 23.0916 16.0494 18.7786 10.7059 17.4092C5.36945 16.0116 2.34827 16.9857 2.08709 17.1198C1.80474 17.261 2.06592 17.3033 2.06592 17.3033C2.06592 17.3033 2.35533 17.3457 2.85651 17.5151C3.38592 17.6845 2.97651 17.9598 2.97651 17.9598C2.06592 18.2492 1.04239 18.0657 0.844741 17.6492C0.647094 17.2327 0.97886 16.8586 1.36004 16.3221C1.74121 15.7574 2.15768 15.7786 2.15768 15.7786C8.75768 13.4916 16.7977 17.628 16.7977 17.628C24.3294 21.4468 25.6142 25.9221 25.473 27.6586ZM5.55298 27.4257C4.80474 27.7927 5.32004 28.3221 5.32004 28.3221C6.72474 29.8327 8.45416 30.7786 10.0989 31.3645C10.2894 28.7598 10.2612 27.8421 10.2824 26.5292C7.71298 26.7057 6.23062 27.1151 5.55298 27.4257Z" fill="white"/>
<path d="M74.2276 26.886V27.8178C74.2276 28.0225 74.0653 28.1849 73.8606 28.1849H69.4206C69.4206 28.4178 69.4276 28.6225 69.4276 28.8131C69.4276 30.1896 69.3712 31.3119 69.237 32.5754C69.2159 32.766 69.0606 32.9072 68.8771 32.9072H67.9171C67.8182 32.9072 67.7265 32.8649 67.6629 32.7943C67.5994 32.7237 67.5641 32.6249 67.5782 32.526C67.7123 31.2696 67.7759 30.1613 67.7759 28.8131C67.7759 28.6154 67.7759 28.4107 67.7688 28.1849H63.3782C63.1735 28.1849 63.0112 28.0225 63.0112 27.8178V26.886C63.0112 26.6813 63.1735 26.519 63.3782 26.519H67.7053C67.6135 25.0013 67.43 23.5401 67.1335 22.0578C67.1194 21.966 67.1406 21.8743 67.1971 21.8037C67.2535 21.7331 67.3382 21.6907 67.43 21.6907H68.4676C68.63 21.6907 68.7641 21.8037 68.7994 21.966C69.0888 23.4978 69.2723 24.9872 69.3641 26.519H73.8606C74.0582 26.519 74.2276 26.6884 74.2276 26.886Z" fill="white"/>
<path d="M68.1863 19.4956C65.8922 13.8556 62.0169 9.0485 56.9769 5.58968C51.8169 2.05321 45.7674 0.182617 39.4851 0.182617C29.0945 0.182617 19.4522 5.34262 13.6992 13.9897C13.6357 14.0814 13.6216 14.2014 13.6569 14.3073C13.6922 14.4203 13.7769 14.4979 13.8827 14.5332L14.6875 14.8085C14.7369 14.8226 14.7863 14.8297 14.8286 14.8297C14.9769 14.8297 15.118 14.752 15.2027 14.632C17.8427 10.7497 21.4145 7.5238 25.5369 5.29321C29.7933 2.99203 34.6145 1.77085 39.478 1.77085C45.358 1.77085 51.0263 3.50732 55.8827 6.78262C60.6192 9.98026 64.2968 14.4485 66.5204 19.6932C66.5839 19.8485 66.7392 19.9544 66.9086 19.9544H67.8686C67.9816 19.9544 68.0874 19.8979 68.1439 19.8061C68.2145 19.7144 68.2286 19.6014 68.1863 19.4956ZM14.8286 14.5897C14.8075 14.5897 14.7863 14.5826 14.7651 14.5756C14.7863 14.5826 14.8075 14.5897 14.8286 14.5897C14.8357 14.5897 14.8427 14.5897 14.8427 14.5897C14.8427 14.5897 14.8357 14.5897 14.8286 14.5897ZM66.711 19.8273C66.7321 19.8414 66.7533 19.8556 66.7745 19.8626C66.7533 19.8485 66.7321 19.8414 66.711 19.8273Z" fill="url(#paint0_radial_19_3379)"/>
<defs>
<radialGradient id="paint0_radial_19_3379" cx="0" cy="0" r="1" gradientUnits="userSpaceOnUse" gradientTransform="translate(67.2844 19.9188) scale(53.6558 53.6558)">
<stop offset="0.00708621" stop-color="white"/>
<stop offset="0.0300991" stop-color="#CBFFFF"/>
<stop offset="0.0570069" stop-color="#96FFFF"/>
<stop offset="0.0842769" stop-color="#68FFFF"/>
<stop offset="0.1113" stop-color="#43FFFF"/>
<stop offset="0.1382" stop-color="#25FFFF"/>
<stop offset="0.1647" stop-color="#11FFFF"/>
<stop offset="0.1908" stop-color="#04FFFF"/>
<stop offset="0.2159" stop-color="#00FFFF"/>
<stop offset="1" stop-color="#0000FF" stop-opacity="0"/>
</radialGradient>
</defs>
</svg>
